<svg xmlns="http://www.w3.org/2000/svg" version="1.1" xmlns:xlink="http://www.w3.org/1999/xlink" xmlns:svgjs="http://svgjs.dev/svgjs" width="1000" height="1000" viewBox="0 0 1000 1000"><rect width="1000" height="1000" fill="#ffffff"></rect><g transform="matrix(0.7,0,0,0.7,150.00040338463458,106.25)"><svg viewBox="0 0 320 360" data-background-color="#ff5858" preserveAspectRatio="xMidYMid meet" height="1125" width="1000" xmlns="http://www.w3.org/2000/svg" xmlns:xlink="http://www.w3.org/1999/xlink"><defs></defs><g id="tight-bounds" transform="matrix(1,0,0,1,0.00018440440442191175,0)"><svg viewBox="0 0 320 360" height="360" width="320"><g><svg></svg></g><g><svg viewBox="0 0 320 360" height="360" width="320"><g><path d="M294.684 112.125c-8.775-10.699-25.381-16.201-43-22.006-7.56-2.498-15.357-5.097-22.985-8.235-7.695-3.173-15.256-7.257-22.613-11.172-14.952-8.033-30.41-16.336-46.105-16.336-15.661 0-31.119 8.303-46.071 16.336-7.358 3.949-14.952 8.033-22.648 11.205-7.594 3.139-15.425 5.704-22.985 8.236-17.618 5.839-34.224 11.341-42.999 22.006-11.712 14.277-11.442 35.439-11.172 57.817 0.034 3.375 0.068 6.717 0.067 10.024 0 3.308-0.034 6.649-0.101 10.024-0.27 22.411-0.54 43.54 11.172 57.851 8.775 10.666 25.381 16.167 42.966 22.006 7.56 2.498 15.357 5.097 23.019 8.235 7.695 3.173 15.256 7.223 22.579 11.172 14.986 8.067 30.444 16.37 46.105 16.37 15.695 0 31.153-8.303 46.105-16.336 7.358-3.949 14.918-8.033 22.614-11.172 7.594-3.139 15.357-5.704 22.884-8.202 17.72-5.873 34.326-11.374 43.101-22.039 11.712-14.277 11.442-35.439 11.171-57.817-0.034-3.409-0.101-6.75-0.101-10.058 0-3.308 0.034-6.649 0.101-9.991 0.371-22.479 0.641-43.641-11.104-57.918zM305.552 103.215c-15.728-19.171-45.801-23.727-71.486-34.326-22.985-9.45-46.375-28.588-74.051-28.587-27.676 0-51.066 19.137-74.052 28.587-25.719 10.598-55.758 15.155-71.486 34.326-17.078 20.791-14.311 50.121-14.311 76.785 0 26.63-2.768 55.994 14.277 76.785 15.728 19.171 45.801 23.727 71.487 34.326 22.985 9.484 46.375 28.588 74.051 28.587 27.676 0 51.066-19.103 74.051-28.587 25.719-10.598 55.758-15.155 71.486-34.326 17.045-20.791 14.277-50.121 14.277-76.785 0.068-26.664 2.835-55.994-14.243-76.785zM309.872 189.923c0.304 23.221 0.574 45.059-12.083 60.483-9.518 11.577-26.664 17.281-44.822 23.289-7.56 2.498-15.29 5.063-22.715 8.134-7.493 3.071-14.952 7.088-22.175 10.969-15.458 8.303-31.355 16.842-48.062 16.842-16.707 0-32.604-8.539-47.995-16.808-7.257-3.915-14.75-7.932-22.243-11.003-7.527-3.105-15.256-5.67-22.748-8.134-18.192-6.008-35.338-11.712-44.823-23.289-12.623-15.391-12.353-37.262-12.083-60.415 0.034-3.375 0.101-6.683 0.101-9.991 0-3.308-0.034-6.615-0.067-9.991-0.304-23.154-0.574-45.025 12.083-60.415 9.518-11.577 26.664-17.247 44.822-23.289 7.527-2.498 15.256-5.063 22.749-8.134 7.493-3.105 14.986-7.122 22.242-11.003 15.391-8.269 31.322-16.842 47.995-16.842 16.673 0 32.604 8.539 47.995 16.808 7.257 3.915 14.75 7.932 22.243 11.003 7.493 3.105 15.256 5.637 22.715 8.134 18.158 6.008 35.338 11.712 44.822 23.289 12.657 15.425 12.387 37.262 12.083 60.416-0.034 3.409-0.101 6.717-0.101 9.99 0 3.308 0.034 6.615 0.067 9.957z" fill="#5e1914" data-fill-palette-color="tertiary"></path></g><g transform="matrix(1,0,0,1,64,137.25852767495212)"><svg viewBox="0 0 192 85.48294465009576" height="85.48294465009576" width="192"><g><svg viewBox="0 0 192 85.48294465009576" height="85.48294465009576" width="192"><g><svg viewBox="0 0 331.8336557737789 147.74019807056703" height="85.48294465009576" width="192"><g transform="matrix(1,0,0,1,139.83365577377893,10.021933916473436)"><svg viewBox="0 0 192 127.69633023762016" height="127.69633023762016" width="192"><g><svg viewBox="0 0 192 127.69633023762016" height="127.69633023762016" width="192"><g><svg viewBox="0 0 192 89.706940874036" height="89.706940874036" width="192"><g transform="matrix(1,0,0,1,0,0)"><svg width="192" viewBox="3 -35.5 75.9800033569336 35.5" height="89.706940874036" data-palette-color="#ff5858"><path d="M37.99-25L37.99 0 31.01 0 31.01-25Q31.01-25.73 30.73-26.37 30.44-27 29.97-27.48 29.49-27.95 28.86-28.22 28.22-28.49 27.49-28.49L27.49-28.49Q26.76-28.49 26.12-28.22 25.49-27.95 25.01-27.48 24.54-27 24.27-26.37 24-25.73 24-25L24-25 24 0 16.99 0 16.99-25Q16.99-25.73 16.72-26.37 16.46-27 15.98-27.48 15.5-27.95 14.87-28.22 14.23-28.49 13.5-28.49L13.5-28.49Q12.77-28.49 12.13-28.22 11.5-27.95 11.02-27.48 10.55-27 10.28-26.37 10.01-25.73 10.01-25L10.01-25 10.01 0 3 0 3-25Q3-27.17 3.82-29.09 4.64-31.01 6.07-32.43 7.5-33.86 9.41-34.68 11.33-35.5 13.5-35.5L13.5-35.5Q15.45-35.5 17.26-34.8 19.07-34.11 20.51-32.79L20.51-32.79Q21.95-34.11 23.74-34.8 25.54-35.5 27.49-35.5L27.49-35.5Q29.66-35.5 31.58-34.68 33.5-33.86 34.92-32.43 36.35-31.01 37.17-29.09 37.99-27.17 37.99-25L37.99-25ZM78.98-25L78.98 0 71.99 0 71.99-25Q71.99-25.73 71.71-26.37 71.43-27 70.96-27.48 70.48-27.95 69.85-28.22 69.21-28.49 68.48-28.49L68.48-28.49Q67.75-28.49 67.11-28.22 66.48-27.95 66-27.48 65.52-27 65.26-26.37 64.99-25.73 64.99-25L64.99-25 64.99 0 57.98 0 57.98-25Q57.98-25.73 57.71-26.37 57.44-27 56.97-27.48 56.49-27.95 55.86-28.22 55.22-28.49 54.49-28.49L54.49-28.49Q53.76-28.49 53.12-28.22 52.49-27.95 52.01-27.48 51.54-27 51.27-26.37 51-25.73 51-25L51-25 51 0 43.99 0 43.99-25Q43.99-27.17 44.81-29.09 45.63-31.01 47.06-32.43 48.48-33.86 50.4-34.68 52.32-35.5 54.49-35.5L54.49-35.5Q56.44-35.5 58.25-34.8 60.06-34.11 61.5-32.79L61.5-32.79Q62.94-34.11 64.73-34.8 66.53-35.5 68.48-35.5L68.48-35.5Q70.65-35.5 72.57-34.68 74.48-33.86 75.91-32.43 77.34-31.01 78.16-29.09 78.98-27.17 78.98-25L78.98-25Z" opacity="1" transform="matrix(1,0,0,1,0,0)" fill="#ff5858" class="undefined-text-0" data-fill-palette-color="quaternary" id="text-0"></path></svg></g></svg></g><g transform="matrix(1,0,0,1,0,110.88459664781492)"><svg viewBox="0 0 192 16.81173358980524" height="16.81173358980524" width="192"><g transform="matrix(1,0,0,1,0,0)"><svg width="192" viewBox="5.440000057220459 -40.40999984741211 609.22998046875 53.349998474121094" height="16.81173358980524" data-palette-color="#ff5858"><path d="M5.44 0L5.44-38.16 13.18-38.16 27.05-24.24 40.92-38.16 48.66-38.16 48.66 0 40.92 0 40.92-27.44 27.05-14.09 13.18-27.44 13.18 0 5.44 0ZM56.88-14.4L56.88-14.4Q56.88-17.5 58.14-20.21 59.4-22.92 61.73-24.95 64.06-26.98 67.37-28.15 70.68-29.32 74.8-29.32L74.8-29.32Q78.93-29.32 82.24-28.15 85.55-26.98 87.88-24.95 90.21-22.92 91.47-20.21 92.72-17.5 92.72-14.4L92.72-14.4Q92.72-11.3 91.47-8.59 90.21-5.88 87.88-3.86 85.55-1.83 82.24-0.66 78.93 0.51 74.8 0.51L74.8 0.51Q70.68 0.51 67.37-0.66 64.06-1.83 61.73-3.86 59.4-5.88 58.14-8.59 56.88-11.3 56.88-14.4ZM64.48-14.4L64.48-14.4Q64.48-12.67 65.17-11.12 65.87-9.57 67.2-8.39 68.53-7.2 70.45-6.51 72.36-5.81 74.8-5.81L74.8-5.81Q77.25-5.81 79.16-6.51 81.08-7.2 82.41-8.39 83.74-9.57 84.44-11.12 85.13-12.67 85.13-14.4L85.13-14.4Q85.13-16.14 84.44-17.7 83.74-19.26 82.41-20.45 81.08-21.63 79.16-22.33 77.25-23.02 74.8-23.02L74.8-23.02Q72.36-23.02 70.45-22.33 68.53-21.63 67.2-20.45 65.87-19.26 65.17-17.7 64.48-16.14 64.48-14.4ZM100.02 0L100.02-28.81 107.25-28.81 107.25-24.66Q109.64-26.44 112.3-27.73 114.97-29.03 117.6-29.71L117.6-29.71 119.73-23.1Q115.55-22.68 112.39-21.23 109.23-19.78 107.25-17.14L107.25-17.14 107.25 0 100.02 0ZM123.73-9.08L123.73-9.08Q123.73-11.16 124.63-12.87 125.54-14.58 127.34-15.81 129.15-17.04 131.85-17.71 134.55-18.38 138.13-18.38L138.13-18.38Q140.8-18.38 143.74-17.99 146.68-17.6 149.8-16.8L149.8-16.8Q149.68-18.16 148.97-19.32 148.27-20.48 147.01-21.33 145.75-22.17 143.98-22.63 142.21-23.1 139.97-23.1L139.97-23.1Q138.75-23.1 137.28-22.95 135.82-22.8 134.25-22.51 132.69-22.22 131.16-21.78 129.64-21.34 128.32-20.73L128.32-20.73 126.12-26.66Q127.76-27.25 129.63-27.73 131.49-28.22 133.45-28.58 135.4-28.93 137.35-29.13 139.31-29.32 141.14-29.32L141.14-29.32Q149.22-29.32 153.15-25.2 157.08-21.07 157.08-12.55L157.08-12.55 157.08 0 149.85 0 149.85-2.71Q148.73-2.05 147.4-1.46 146.07-0.88 144.51-0.44 142.94 0 141.15 0.26 139.36 0.51 137.35 0.51L137.35 0.51Q133.98 0.51 131.43-0.22 128.88-0.95 127.17-2.25 125.46-3.54 124.6-5.29 123.73-7.03 123.73-9.08ZM131.35-9.33L131.35-9.33Q131.35-8.62 131.71-7.97 132.08-7.32 132.89-6.82 133.69-6.32 134.95-6.02 136.21-5.71 137.99-5.71L137.99-5.71Q139.89-5.71 141.67-6.05 143.46-6.4 145-6.96 146.53-7.52 147.78-8.25 149.02-8.98 149.85-9.77L149.85-9.77 149.85-11.04Q148.19-11.5 146.57-11.82 144.95-12.13 143.47-12.32 141.99-12.5 140.69-12.57 139.38-12.65 138.4-12.65L138.4-12.65Q136.38-12.65 135.03-12.38 133.69-12.11 132.86-11.66 132.03-11.21 131.69-10.6 131.35-9.99 131.35-9.33ZM166.63 0L166.63-28.81 173.85-28.81 173.85-26.37Q176.73-28 179.36-28.66 181.98-29.32 184.5-29.32L184.5-29.32Q187.79-29.32 190.6-28.36 193.41-27.39 195.46-25.49 197.51-23.58 198.67-20.74 199.83-17.9 199.83-14.16L199.83-14.16 199.83 0 192.63 0 192.63-12.99Q192.63-15.36 191.96-17.22 191.28-19.09 190.03-20.37 188.77-21.66 186.98-22.33 185.18-23 182.96-23L182.96-23Q181.79-23 180.55-22.75 179.32-22.51 178.14-22.06 176.95-21.61 175.85-20.94 174.76-20.26 173.85-19.41L173.85-19.41 173.85 0 166.63 0ZM210.52 10.99L213.21 4.88Q214.58 5.37 215.99 5.7 217.41 6.03 218.74 6.24 220.07 6.45 221.29 6.53 222.51 6.62 223.46 6.62L223.46 6.62Q226.34 6.62 228.48 5.92 230.62 5.22 232.04 4.05 233.47 2.88 234.18 1.33 234.89-0.22 234.89-1.95L234.89-1.95 234.89-3.2Q233.96-2.56 232.71-1.98 231.47-1.39 229.98-0.95 228.49-0.51 226.82-0.24 225.15 0.02 223.36 0.02L223.36 0.02Q219.82 0.02 216.82-1.04 213.82-2.1 211.62-4.02 209.42-5.93 208.19-8.62 206.96-11.3 206.96-14.58L206.96-14.58Q206.96-17.92 208.25-20.64 209.55-23.36 211.83-25.29 214.11-27.22 217.24-28.27 220.36-29.32 224.02-29.32L224.02-29.32Q225.59-29.32 227.12-29.13 228.66-28.93 230.07-28.59 231.47-28.25 232.7-27.77 233.94-27.29 234.89-26.73L234.89-26.73 234.89-28.81 242.11-28.81 242.11-3.3Q242.11 0.63 240.92 3.66 239.72 6.69 237.41 8.75 235.11 10.82 231.69 11.88 228.27 12.94 223.85 12.94L223.85 12.94Q222.27 12.94 220.56 12.81 218.85 12.67 217.13 12.41 215.41 12.16 213.73 11.8 212.06 11.45 210.52 10.99L210.52 10.99ZM214.55-14.65L214.55-14.65Q214.55-12.92 215.25-11.39 215.94-9.86 217.24-8.73 218.53-7.59 220.36-6.95 222.19-6.3 224.49-6.3L224.49-6.3Q225.98-6.3 227.45-6.58 228.93-6.86 230.29-7.37 231.64-7.89 232.82-8.62 234.01-9.35 234.89-10.25L234.89-10.25 234.89-19.75Q233.79-20.63 232.57-21.24 231.35-21.85 230.08-22.24 228.81-22.63 227.51-22.81 226.22-23 225-23L225-23Q222.51-23 220.57-22.34 218.63-21.68 217.3-20.54 215.97-19.41 215.26-17.9 214.55-16.38 214.55-14.65ZM248.61-14.4L248.61-14.4Q248.61-17.5 249.87-20.21 251.12-22.92 253.45-24.95 255.79-26.98 259.09-28.15 262.4-29.32 266.53-29.32L266.53-29.32Q270.65-29.32 273.96-28.15 277.27-26.98 279.6-24.95 281.93-22.92 283.19-20.21 284.45-17.5 284.45-14.4L284.45-14.4Q284.45-11.3 283.19-8.59 281.93-5.88 279.6-3.86 277.27-1.83 273.96-0.66 270.65 0.51 266.53 0.51L266.53 0.51Q262.4 0.51 259.09-0.66 255.79-1.83 253.45-3.86 251.12-5.88 249.87-8.59 248.61-11.3 248.61-14.4ZM256.2-14.4L256.2-14.4Q256.2-12.67 256.9-11.12 257.59-9.57 258.92-8.39 260.25-7.2 262.17-6.51 264.09-5.81 266.53-5.81L266.53-5.81Q268.97-5.81 270.89-6.51 272.8-7.2 274.13-8.39 275.46-9.57 276.16-11.12 276.86-12.67 276.86-14.4L276.86-14.4Q276.86-16.14 276.16-17.7 275.46-19.26 274.13-20.45 272.8-21.63 270.89-22.33 268.97-23.02 266.53-23.02L266.53-23.02Q264.09-23.02 262.17-22.33 260.25-21.63 258.92-20.45 257.59-19.26 256.9-17.7 256.2-16.14 256.2-14.4ZM289.77-3.37L292.9-8.84Q295.83-7.08 299.34-6.25 302.86-5.42 306.54-5.42L306.54-5.42Q309.03-5.42 310.69-5.76 312.35-6.1 313.35-6.64 314.36-7.18 314.77-7.86 315.19-8.54 315.19-9.25L315.19-9.25Q315.19-10.28 314.29-11.01 313.4-11.74 311.35-11.74L311.35-11.74Q310.4-11.74 309.3-11.62 308.2-11.5 306.99-11.36 305.79-11.23 304.48-11.11 303.17-10.99 301.83-10.99L301.83-10.99Q298.9-10.99 296.84-11.62 294.78-12.26 293.48-13.35 292.19-14.45 291.6-15.95 291.02-17.46 291.02-19.19L291.02-19.19Q291.02-21.39 292.04-23.24 293.07-25.1 294.97-26.45 296.88-27.81 299.57-28.56 302.27-29.32 305.59-29.32L305.59-29.32Q307.32-29.32 309.22-29.11 311.11-28.91 312.94-28.56 314.77-28.22 316.46-27.77 318.14-27.32 319.43-26.81L319.43-26.81 317.16-21.19Q314.4-22.22 311.66-22.81 308.91-23.41 306.01-23.41L306.01-23.41Q303.98-23.41 302.58-23.11 301.17-22.8 300.29-22.3 299.41-21.8 299.01-21.15 298.61-20.51 298.61-19.8L298.61-19.8Q298.61-19.29 298.82-18.87 299.02-18.46 299.5-18.15 299.98-17.85 300.74-17.69 301.51-17.53 302.64-17.53L302.64-17.53Q303.66-17.53 304.81-17.65 305.96-17.77 307.2-17.91 308.45-18.04 309.78-18.16 311.11-18.29 312.5-18.29L312.5-18.29Q315.09-18.29 317.03-17.68 318.97-17.07 320.24-15.97 321.51-14.87 322.14-13.38 322.78-11.89 322.78-10.13L322.78-10.13Q322.78-7.86 321.73-5.91 320.68-3.96 318.6-2.53 316.53-1.1 313.44-0.29 310.35 0.51 306.3 0.51L306.3 0.51Q303.81 0.51 301.49 0.21 299.17-0.1 297.07-0.62 294.97-1.15 293.13-1.86 291.28-2.56 289.77-3.37L289.77-3.37ZM346.8 0L346.8-38.16 354.54-38.16 368.41-24.24 382.28-38.16 390.01-38.16 390.01 0 382.28 0 382.28-27.44 368.41-14.09 354.54-27.44 354.54 0 346.8 0ZM403.78-32.74L403.78-32.74Q402.71-32.74 401.84-33.04 400.98-33.35 400.37-33.87 399.76-34.4 399.43-35.1 399.1-35.79 399.1-36.57L399.1-36.57Q399.1-37.38 399.43-38.07 399.76-38.77 400.37-39.28 400.98-39.79 401.84-40.1 402.71-40.41 403.78-40.41L403.78-40.41Q404.88-40.41 405.75-40.1 406.62-39.79 407.23-39.28 407.84-38.77 408.17-38.07 408.5-37.38 408.5-36.57L408.5-36.57Q408.5-35.79 408.17-35.1 407.84-34.4 407.23-33.87 406.62-33.35 405.75-33.04 404.88-32.74 403.78-32.74ZM400.17 0L400.17-28.81 407.4-28.81 407.4 0 400.17 0ZM416.65 0L416.65-28.81 423.88-28.81 423.88-26.37Q426.76-28 429.38-28.66 432.01-29.32 434.52-29.32L434.52-29.32Q437.82-29.32 440.63-28.36 443.43-27.39 445.48-25.49 447.53-23.58 448.69-20.74 449.85-17.9 449.85-14.16L449.85-14.16 449.85 0 442.65 0 442.65-12.99Q442.65-15.36 441.98-17.22 441.31-19.09 440.05-20.37 438.79-21.66 437-22.33 435.21-23 432.98-23L432.98-23Q431.81-23 430.58-22.75 429.35-22.51 428.16-22.06 426.98-21.61 425.88-20.94 424.78-20.26 423.88-19.41L423.88-19.41 423.88 0 416.65 0ZM457.35-14.5L457.35-14.5Q457.35-17.43 458.54-20.1 459.74-22.78 461.99-24.83 464.23-26.88 467.49-28.1 470.75-29.32 474.9-29.32L474.9-29.32Q479.03-29.32 482.34-28.09 485.64-26.86 487.95-24.71 490.26-22.56 491.49-19.65 492.72-16.75 492.72-13.43L492.72-13.43Q492.72-13.01 492.71-12.54 492.7-12.06 492.65-11.67L492.65-11.67 465.41-11.67Q465.87-10.38 466.91-9.3 467.94-8.23 469.51-7.45 471.07-6.67 473.12-6.24 475.17-5.81 477.66-5.81L477.66-5.81Q480.15-5.81 482.62-6.34 485.08-6.86 487.33-7.67L487.33-7.67 489.77-2.15Q488.35-1.49 486.9-0.99 485.45-0.49 483.87-0.16 482.3 0.17 480.58 0.34 478.86 0.51 476.95 0.51L476.95 0.51Q472.09 0.51 468.43-0.66 464.77-1.83 462.3-3.86 459.84-5.88 458.59-8.62 457.35-11.35 457.35-14.5ZM465.41-17.31L485.06-17.31Q484.67-18.51 483.85-19.54 483.03-20.58 481.81-21.35 480.59-22.12 478.98-22.56 477.37-23 475.44-23L475.44-23Q473.39-23 471.7-22.53 470.02-22.07 468.75-21.29 467.48-20.51 466.64-19.48 465.8-18.46 465.41-17.31L465.41-17.31ZM504.3-32.74L504.3-32.74Q503.22-32.74 502.36-33.04 501.49-33.35 500.88-33.87 500.27-34.4 499.94-35.1 499.61-35.79 499.61-36.57L499.61-36.57Q499.61-37.38 499.94-38.07 500.27-38.77 500.88-39.28 501.49-39.79 502.36-40.1 503.22-40.41 504.3-40.41L504.3-40.41Q505.4-40.41 506.26-40.1 507.13-39.79 507.74-39.28 508.35-38.77 508.68-38.07 509.01-37.38 509.01-36.57L509.01-36.57Q509.01-35.79 508.68-35.1 508.35-34.4 507.74-33.87 507.13-33.35 506.26-33.04 505.4-32.74 504.3-32.74ZM500.68 0L500.68-28.81 507.91-28.81 507.91 0 500.68 0ZM517.16 0L517.16-28.81 524.39-28.81 524.39-24.66Q526.78-26.44 529.44-27.73 532.1-29.03 534.74-29.71L534.74-29.71 536.87-23.1Q532.69-22.68 529.53-21.23 526.37-19.78 524.39-17.14L524.39-17.14 524.39 0 517.16 0ZM540.5-14.4L540.5-14.4Q540.5-17.5 541.76-20.21 543.02-22.92 545.35-24.95 547.68-26.98 550.99-28.15 554.3-29.32 558.42-29.32L558.42-29.32Q562.55-29.32 565.86-28.15 569.17-26.98 571.5-24.95 573.83-22.92 575.09-20.21 576.34-17.5 576.34-14.4L576.34-14.4Q576.34-11.3 575.09-8.59 573.83-5.88 571.5-3.86 569.17-1.83 565.86-0.66 562.55 0.51 558.42 0.51L558.42 0.51Q554.3 0.51 550.99-0.66 547.68-1.83 545.35-3.86 543.02-5.88 541.76-8.59 540.5-11.3 540.5-14.4ZM548.1-14.4L548.1-14.4Q548.1-12.67 548.79-11.12 549.49-9.57 550.82-8.39 552.15-7.2 554.06-6.51 555.98-5.81 558.42-5.81L558.42-5.81Q560.86-5.81 562.78-6.51 564.7-7.2 566.03-8.39 567.36-9.57 568.05-11.12 568.75-12.67 568.75-14.4L568.75-14.4Q568.75-16.14 568.05-17.7 567.36-19.26 566.03-20.45 564.7-21.63 562.78-22.33 560.86-23.02 558.42-23.02L558.42-23.02Q555.98-23.02 554.06-22.33 552.15-21.63 550.82-20.45 549.49-19.26 548.79-17.7 548.1-16.14 548.1-14.4ZM581.67-3.37L584.79-8.84Q587.72-7.08 591.24-6.25 594.75-5.42 598.44-5.42L598.44-5.42Q600.93-5.42 602.59-5.76 604.25-6.1 605.25-6.64 606.25-7.18 606.67-7.86 607.08-8.54 607.08-9.25L607.08-9.25Q607.08-10.28 606.19-11.01 605.3-11.74 603.25-11.74L603.25-11.74Q602.29-11.74 601.2-11.62 600.1-11.5 598.89-11.36 597.68-11.23 596.37-11.11 595.07-10.99 593.73-10.99L593.73-10.99Q590.8-10.99 588.73-11.62 586.67-12.26 585.38-13.35 584.08-14.45 583.5-15.95 582.91-17.46 582.91-19.19L582.91-19.19Q582.91-21.39 583.94-23.24 584.96-25.1 586.87-26.45 588.77-27.81 591.47-28.56 594.17-29.32 597.49-29.32L597.49-29.32Q599.22-29.32 601.11-29.11 603-28.91 604.83-28.56 606.67-28.22 608.35-27.77 610.03-27.32 611.33-26.81L611.33-26.81 609.06-21.19Q606.3-22.22 603.55-22.81 600.81-23.41 597.9-23.41L597.9-23.41Q595.87-23.41 594.47-23.11 593.07-22.8 592.19-22.3 591.31-21.8 590.91-21.15 590.5-20.51 590.5-19.8L590.5-19.8Q590.5-19.29 590.71-18.87 590.92-18.46 591.39-18.15 591.87-17.85 592.64-17.69 593.41-17.53 594.53-17.53L594.53-17.53Q595.56-17.53 596.7-17.65 597.85-17.77 599.1-17.91 600.34-18.04 601.67-18.16 603-18.29 604.39-18.29L604.39-18.29Q606.98-18.29 608.92-17.68 610.86-17.07 612.13-15.97 613.4-14.87 614.04-13.38 614.67-11.89 614.67-10.13L614.67-10.13Q614.67-7.86 613.62-5.91 612.57-3.96 610.5-2.53 608.42-1.1 605.33-0.29 602.25 0.51 598.19 0.51L598.19 0.51Q595.7 0.51 593.38 0.21 591.06-0.1 588.96-0.62 586.87-1.15 585.02-1.86 583.18-2.56 581.67-3.37L581.67-3.37Z" opacity="1" transform="matrix(1,0,0,1,0,0)" fill="#ff5858" class="undefined-text-1" data-fill-palette-color="quaternary" id="text-1"></path></svg></g></svg></g></svg></g></svg></g><g><svg viewBox="0 0 118.656 147.74019807056703" height="147.74019807056703" width="118.656"><g><svg xmlns="http://www.w3.org/2000/svg" xmlns:xlink="http://www.w3.org/1999/xlink" version="1.1" x="0" y="0" viewBox="12.144499778747559 4.2960004806518555 73.70974731445312 91.77700805664062" enable-background="new 0 0 100 100" xml:space="preserve" height="147.74019807056703" width="118.656" class="icon-icon-0" data-fill-palette-color="quaternary" id="icon-0"><path d="M83.941 35.55c-2.545-4.415-7.258-7.134-12.357-7.134H26.416c-5.098 0-9.809 2.718-12.357 7.134-2.552 4.416-2.552 9.853-0.004 14.269l22.588 39.119c2.547 4.416 7.261 7.135 12.357 7.135 5.1 0 9.809-2.719 12.357-7.135l22.584-39.119C86.492 45.404 86.492 39.966 83.941 35.55zM28.139 49.932c-2.311 0-4.179-1.876-4.179-4.183 0-2.308 1.868-4.179 4.179-4.179 2.313 0 4.185 1.871 4.185 4.179C32.324 48.056 30.452 49.932 28.139 49.932zM40.142 64.762c-2.311 0-4.179-1.879-4.179-4.187s1.869-4.181 4.179-4.181c2.317 0 4.189 1.873 4.189 4.181S42.459 64.762 40.142 64.762zM49.893 82.918c-2.312 0-4.184-1.871-4.184-4.18 0-2.311 1.872-4.178 4.184-4.178 2.313 0 4.186 1.867 4.186 4.178C54.079 81.047 52.205 82.918 49.893 82.918zM49.893 49.932c-2.312 0-4.184-1.876-4.184-4.183 0-2.308 1.872-4.179 4.184-4.179 2.313 0 4.186 1.871 4.186 4.179C54.079 48.056 52.205 49.932 49.893 49.932zM59.637 64.762c-2.308 0-4.183-1.879-4.183-4.187s1.875-4.181 4.183-4.181c2.316 0 4.188 1.873 4.188 4.181S61.952 64.762 59.637 64.762zM69.852 49.932c-2.307 0-4.178-1.876-4.178-4.183 0-2.308 1.871-4.179 4.178-4.179 2.318 0 4.189 1.871 4.189 4.179C74.041 48.056 72.17 49.932 69.852 49.932z" fill="#ff5858" data-fill-palette-color="quaternary"></path><path d="M72.773 5.907c-2.146-2.147-5.629-2.147-7.777 0l-6.456 6.457-6.458-6.457c-1.073-1.074-2.48-1.611-3.888-1.611-1.408 0-2.816 0.537-3.89 1.611l-6.457 6.457L31.39 5.907c-2.148-2.147-5.629-2.148-7.778 0-2.148 2.148-2.148 5.63 0 7.778l10.346 10.346c1.031 1.031 2.43 1.611 3.889 1.611 1.458 0 2.858-0.58 3.889-1.611l6.457-6.458 6.458 6.458c1.031 1.031 2.431 1.611 3.89 1.611s2.856-0.58 3.89-1.611l10.346-10.346C74.922 11.538 74.922 8.055 72.773 5.907z" fill="#ff5858" data-fill-palette-color="quaternary"></path></svg></g></svg></g></svg></g></svg></g></svg></g></svg></g></svg><rect width="320" height="360" fill="none" stroke="none" visibility="hidden"></rect></g></svg></g></svg>